# xmcd CD database file
#
# Track frame offsets:
#	150
#	11860
#	17486
#	33375
#	45177
#	62064
#	80342
#	87913
#	96912
#	102368
#	120232
#	128596
#	137370
#	148376
#	155307
#	165904
#	174483
#	180977
#	191885
#	203775
#	214078
#	229086
#	239538
#	247963
#	257321
#	268445
#	279524
#	284094
#	298000
#	314633
#	332345
#
# Disc length: 4759 seconds
#
# Revision: 1
# Processed by: cddbd v1.5.2PL0 Copyright (c) Steve Scherf et al.
# Submitted via: CDex 1.51
#
DISCID=b512951f
DTITLE=Various Artist - MERENGUE Factory Raight MIX
DYEAR=1900
DGENRE=Merengue
TTITLE0=LA TRAVESIA
TTITLE1=SAKONSA
TTITLE2=BESAME
TTITLE3=LABIOS DE CARAMELOS
TTITLE4=NO LE QUENTES
TTITLE5=A DORMIR JUNTICOS
TTITLE6=TODA LA VIDA
TTITLE7=LOS CAMINOS DE LA VIDA
TTITLE8=CORTAME LAS VENAS
TTITLE9=AL OTRO LADO DEL SOL
TTITLE10=MAS QUE AMIGOS
TTITLE11=SOLO TU
TTITLE12=CAMPANITAS DE AMOR
TTITLE13=LA FOTO SE ME BORRO
TTITLE14=MENTIROSA
TTITLE15=ESTOY DOLIDO
TTITLE16=CARA ANGELICAL
TTITLE17=ESCUCHAME
TTITLE18=NUESTRO SUEÑO
TTITLE19=SI TU TE VAS
TTITLE20=FLACA O GORDITA
TTITLE21=MI SECRETO
TTITLE22=PEGA PEGA
TTITLE23=LLORE LLORE
TTITLE24=ECHATE PA CA
TTITLE25=SUBE LA RADIO
TTITLE26=DULCE MATERIAL
TTITLE27=MENEALO
TTITLE28=EL TIBURON
TTITLE29=HUELE PEGA
TTITLE30=LATIN DANCE
EXTD=
EXTT0=
EXTT1=
EXTT2=
EXTT3=
EXTT4=
EXTT5=
EXTT6=
EXTT7=
EXTT8=
EXTT9=
EXTT10=
EXTT11=
EXTT12=
EXTT13=
EXTT14=
EXTT15=
EXTT16=
EXTT17=
EXTT18=
EXTT19=
EXTT20=
EXTT21=
EXTT22=
EXTT23=
EXTT24=
EXTT25=
EXTT26=
EXTT27=
EXTT28=
EXTT29=
EXTT30=
PLAYORDER=
